<?xml version="1.0" encoding="UTF-8" standalone="no" ?>
<!DOCTYPE svg PUBLIC "-//W3C//DTD SVG 1.1//EN" "http://www.w3.org/Graphics/SVG/1.1/DTD/svg11.dtd">
<svg xmlns="http://www.w3.org/2000/svg" xmlns:xlink="http://www.w3.org/1999/xlink" version="1.1" width="1280" height="1024" viewBox="0 0 1280 1024" xml:space="preserve">
<desc>Created with Fabric.js 5.3.0</desc>
<defs>
</defs>
<g transform="matrix(1 0 0 1 640 512)" id="background-logo"  >
<rect style="stroke: none; stroke-width: 0; stroke-dasharray: none; stroke-linecap: butt; stroke-dashoffset: 0; stroke-linejoin: miter; stroke-miterlimit: 4; fill: rgb(255,255,255); fill-opacity: 0; fill-rule: nonzero; opacity: 1;"  paint-order="stroke"  x="-640" y="-512" rx="0" ry="0" width="1280" height="1024" />
</g>
<g transform="matrix(1.9211538461538462 0 0 1.9211538461538462 640 393.80534453692013)" id="logo-logo"  >
<g style=""  paint-order="stroke"   >
		<g transform="matrix(0.6243155993820171 0 0 0.6243155993820171 0 -2.842171e-14)"  >
<g style=""  paint-order="stroke"   >
		<g transform="matrix(1 0 0 1 2.6767885000000433 38.816680621043815)"  >
<linearGradient id="SVGID_2_353024" gradientUnits="userSpaceOnUse" gradientTransform="matrix(1 0 0 1 0 0)"  x1="423.9789734" y1="410.2941589" x2="429.7854309" y2="584.4876709">
<stop offset="30.55336%" style="stop-color:rgb(51,122,170);stop-opacity: 1"/>
<stop offset="100%" style="stop-color:rgb(29,68,99);stop-opacity: 1"/>
</linearGradient>
<path style="stroke: none; stroke-width: 1; stroke-dasharray: none; stroke-linecap: butt; stroke-dashoffset: 0; stroke-linejoin: miter; stroke-miterlimit: 4; fill: url(#SVGID_2_353024); fill-rule: nonzero; opacity: 1;"  paint-order="stroke"  transform=" translate(-427.0330506, -523.8093260522096)" d="M 514.3343506 451.3174744 C 508.5976563 453.0435486 503.1362305 455.73843389999996 498.19097899999997 459.1524353 C 493.24694819999996 462.57229609999996 488.8256836 466.7071228 484.85003659999995 471.13107299999996 C 482.83099359999994 473.32284549999997 480.9451293999999 475.60604859999995 479.0662841999999 477.8923645 C 477.2239379999999 480.20236209999996 475.42016599999994 482.5357361 473.64801029999995 484.8744202 C 470.09478759999996 489.5486145 466.61871339999993 494.2328186 462.94702149999995 498.69522099999995 C 461.12219239999996 500.9393615999999 459.2460937999999 503.1153259999999 457.32135009999996 505.24215699999996 C 455.36010739999995 507.32565309999995 453.376648 509.38650509999997 451.25042719999993 511.27114869999997 C 447.07861319999995 515.1109008999999 442.40002439999995 518.3170166 437.4221190999999 521.0241699 C 427.4581908999999 526.4279785 416.26928709999993 529.5945433999999 404.9140624999999 530.5953368999999 C 393.5338744999999 531.6918944999999 381.87719729999986 530.4238280999999 370.07550049999986 530.2621459999999 C 364.1719970999999 530.1759033 358.20416259999985 530.2806396999999 352.28045659999987 531.0939331 C 350.80224619999984 531.3085327 349.32714849999985 531.5654297 347.8579101999999 531.8331298999999 C 346.40246589999987 532.1738891999998 344.9202880999999 532.4479981 343.4932861999999 532.8451537999999 C 340.6206054999999 533.5863036999999 337.7828979999999 534.4589844 334.9927368999999 535.4555053999999 C 323.8428345999999 539.4491576999999 313.3816528999999 545.3717651999999 304.5812988999999 553.1356200999999 C 311.07281499999993 548.4119262999999 318.0882568999999 544.5079955999998 325.4277343999999 541.4520873999999 C 327.3928832999999 545.8831786999999 330.7006225999999 549.6790160999999 335.0385741999999 552.1834716999998 L 347.7487792999999 559.5217895999998 L 347.7487792999999 534.9499511999998 C 347.9608153999999 534.9127807999997 348.17327879999993 534.8792724999997 348.3851317999999 534.8394164999997 C 349.8058470999999 534.6482543999997 351.2280272999999 534.4667357999997 352.6544798999999 534.3256225999997 C 353.1684569999999 534.2804565999998 353.68511949999987 534.2608642999998 354.1999510999999 534.2239379999997 L 354.1999510999999 563.4664916999998 L 358.1999510999999 565.7465209999998 L 358.1999510999999 534.0108642999998 C 362.0986937999999 533.8808593999997 366.0163573999999 533.9378662999998 369.9450682999999 534.1387329999998 C 375.7420042999999 534.4312134999998 381.5698851999999 534.9594116999998 387.4591063999999 535.2593994999997 C 388.6372679999999 535.3237915999997 389.8193358999999 535.3790283999997 391.0034178999999 535.4269409999997 L 391.0034178999999 584.4951172999997 L 404.5833739999999 592.3356323999997 L 404.5833739999999 535.3380127999997 C 404.82299799999987 535.3219605999997 405.0623778999999 535.3109131999996 405.3021239999999 535.2929688999997 C 407.5117797999999 535.1303101999997 409.71643059999985 534.8834839999996 411.9099730999999 534.5556031999996 L 411.9099730999999 596.4664918999996 L 415.9099730999999 598.7564698999996 L 415.9099730999999 533.8596192999996 C 424.2082518999999 532.2275391999996 432.2882079999999 529.4082032999996 439.7974852999999 525.4168702999996 C 442.57141109999986 523.9021607999996 445.2639769999999 522.2133180999996 447.8380736999999 520.3612061999996 L 447.8380736999999 592.1749878999997 L 461.4180297999999 584.3346558999997 L 461.4180297999999 507.8889466999997 C 463.23077389999986 505.86318989999967 464.9748534999999 503.7866517999997 466.6457519999999 501.6699525999997 C 467.5201415999999 500.5566712999997 468.3793334999999 499.4358827999997 469.2299804999999 498.3115541999997 L 469.2299804999999 579.8165285999997 L 473.2299804999999 577.5064699999997 L 473.2299804999999 492.9164736999997 C 478.0178222999999 486.36624179999967 482.6533813999999 479.8070986999997 487.7972411999999 473.7245180999997 C 491.49035639999994 469.3064272999997 495.58209229999994 465.2843935999997 500.12713619999994 461.82852199999974 C 501.58947749999993 460.71432519999973 503.10992429999993 459.6781923999997 504.67272949999995 458.71011379999976 L 504.67272949999995 559.3618776999998 L 517.1046143 552.1843874999998 C 524.3079223999999 548.0256350999998 528.7453614 540.3398439999999 528.7453614 532.0222170999998 L 528.7457886 450.5638125999998 C 529.8287353999999 450.44149809999976 530.9143677 450.33578529999977 532.003418 450.2608950999998 C 534.8987427 450.0557558999998 537.8139649 450.0219424999998 540.7304688 450.1145937999998 C 543.6486207 450.1886904999998 546.5699463000001 450.3941347999998 549.4848023000001 450.6975405999998 C 543.7341309000001 449.5759585999998 537.8724976000001 448.8580019999998 531.9553223 448.8622744999998 C 526.0455933 448.8525696 520.0789185 449.6078186 514.3343506 451.3174744 z" stroke-linecap="round" />
</g>
		<g transform="matrix(1 0 0 1 0 -40.12109374999983)"  >
<linearGradient id="SVGID_3_353025" gradientUnits="userSpaceOnUse" gradientTransform="matrix(1 0 0 1 0 0)"  x1="419.3889771" y1="343.9881592" x2="425.1954346" y2="501.923645">
<stop offset="30.55336%" style="stop-color:rgb(155,66,117);stop-opacity: 1"/>
<stop offset="100%" style="stop-color:rgb(104,28,79);stop-opacity: 1"/>
</linearGradient>
<path style="stroke: none; stroke-width: 1; stroke-dasharray: none; stroke-linecap: butt; stroke-dashoffset: 0; stroke-linejoin: miter; stroke-miterlimit: 4; fill: url(#SVGID_3_353025); fill-rule: nonzero; opacity: 1;"  paint-order="stroke"  transform=" translate(-424.3562621, -444.87155168116595)" d="M 329.104248 503.355011 C 331.81787099999997 502.51644899999997 334.5681762 501.8052063 337.33673089999996 501.1925354 C 340.10778799999997 500.55624389999997 342.8512573 500.1254578 345.65417469999994 499.8691101 C 351.24426259999996 499.356781 356.90008529999994 499.4997864 362.56652819999994 499.9420471 C 373.88598619999993 500.84707640000005 385.39141829999994 502.6830749 397.24621569999994 502.04702760000004 C 403.1959837999999 501.6925964 409.10833729999996 500.4927673 414.72662339999994 498.54464720000004 C 420.35919179999996 496.62106320000004 425.71044909999995 494.00204470000006 430.7499998999999 490.96383670000006 C 440.81665029999994 484.8170471000001 449.65887439999995 477.16732790000003 458.22821029999994 469.48782350000005 C 462.5015867999999 465.61203000000006 466.71209699999997 461.7677307000001 471.03009019999996 457.9781189 L 473.1334227 456.117096 L 473.22998029999997 456.117096 L 473.22998029999997 456.0316468 L 474.26171859999994 455.118744 C 475.3427732999999 454.193329 476.36285389999995 453.273285 477.46832259999996 452.41037 C 479.62921129999995 450.6436464 481.9130858 449.0220643 484.28234849999996 447.5364076 C 493.75408919999995 441.6064149 504.64208969999993 437.7334291 515.9528197 437.41037 C 527.3377074 436.8628846 538.8010253 437.9372255 550.1657713999999 439.6833803 C 542.9876707999999 437.8707582 535.6670531 436.50460830000003 528.2633056 435.7217104 C 526.951416 429.2544863 522.9464111 423.5580751 517.1052856 420.1855776 L 504.6727294 413.007538 L 504.6727294 435.85318010000003 C 502.58361809999997 436.21316550000006 500.512268 436.67922990000005 498.4795531 437.25888080000004 C 495.6325682 438.02767960000006 492.8596801 439.049164 490.1561278 440.22061180000003 C 487.44403059999996 441.3768008 484.81134019999996 442.7171938 482.26818829999996 444.21145650000005 C 479.71728499999995 445.6929018000001 477.2483519 447.32266260000006 474.8964842 449.11441060000004 C 474.3269041 449.52322410000005 473.7749632 449.96560690000007 473.22998029999997 450.4133608 L 473.22998029999997 378.3085024 L 459.49371319999995 386.9231264 L 437.71313459999993 374.3479921 C 430.50988749999993 370.1891176 421.63513169999993 370.1891176 414.4318235999999 374.34787 L 335.03924549999994 420.184662 C 327.8359373999999 424.34341440000003 323.39849839999994 432.0292055 323.39849839999994 440.3468324 L 323.39813219999996 503.0042421 C 314.3374022 506.8687441 305.85919179999996 512.0440675 298.5467528 518.5142824 C 307.8572388 511.7528381 318.2197266 506.6239929 329.104248 503.355011 z M 469.2299805 453.7705383 L 468.1680298 454.6719665 C 465.9071045 456.5752868 463.6577149 458.5087585 461.4180298 460.448944 L 461.4180298 390.43783559999997 L 469.2299805 385.5389709 L 469.2299805 453.7705383 z M 447.8380737 413.9659424 L 447.8380737 472.1929627 C 441.5499878 477.4951478 435.1085815 482.5252381 428.1626587 486.686615 C 424.0916748 489.2043152 419.8156738 491.3692932 415.39111330000003 493.0880432 L 415.39111330000003 413.9659424 L 447.8380737 413.9659424 z M 411.3911133 414.729126 L 411.3911133 494.5046692 C 409.152771 495.2199402 406.8810425 495.81338500000004 404.5834351 496.2795105 L 404.58346559999995 419.923645 L 411.3911133 414.729126 z M 391.003479 497.5771179 C 381.753418 497.65469360000003 372.34912110000005 496.448883 362.79956050000004 496.0574646 C 361.10015860000004 495.9880676 359.3927001 495.941803 357.68164060000004 495.9256287 L 357.68164060000004 443.2838745 L 391.00350950000006 443.2838745 L 391.003479 497.5771179 z M 353.6816406 445.3515015 L 353.6816406 495.95718389999996 C 351.7039795 496.0112 349.7247314 496.12722779999996 347.74877929999997 496.32907109999996 L 347.74877929999997 450.6333008 L 353.6816406 445.3515015 z" stroke-linecap="round" />
</g>
</g>
</g>
</g>
</g>
<g transform="matrix(1.9211538461538462 0 0 1.9211538461538462 639.9106663461538 624.4941006443064)" id="text-logo"  >
<g style=""  paint-order="stroke"   >
		<g transform="matrix(1 0 0 1 5.684342e-14 0)" id="text-logo-path-0"  >
<path style="stroke: none; stroke-width: 0; stroke-dasharray: none; stroke-linecap: butt; stroke-dashoffset: 0; stroke-linejoin: miter; stroke-miterlimit: 4; fill: rgb(131,48,99); fill-rule: nonzero; opacity: 1;"  paint-order="stroke"  transform=" translate(-161.85, 21.7)" d="M 15.31 -37.2 L 22.51 -37.2 L 22.51 -43.4 L 1.86 -43.4 L 1.86 -37.2 L 9.11 -37.2 L 9.11 0 L 15.31 0 Z M 32.49 -24.8 L 32.49 -37.2 L 44.89 -37.2 L 44.89 -43.4 L 26.29 -43.4 L 26.29 0 L 44.89 0 L 44.89 -6.2 L 32.49 -6.2 L 32.49 -18.6 L 40.73 -18.6 L 40.73 -24.8 Z M 56.42 -8.25 L 65.72 -8.25 L 67.27 0 L 73.47 0 L 65.22 -43.4 L 56.92 -43.4 L 48.67 0 L 54.87 0 Z M 64.48 -14.76 L 57.66 -14.76 L 61.07 -32.55 Z M 104.1 0 L 104.1 -43.4 L 97.9 -43.4 L 90.71 -17.48 L 83.45 -43.4 L 77.25 -43.4 L 77.25 0 L 83.45 0 L 83.45 -21.2 L 87.61 -6.39 L 93.81 -6.39 L 97.9 -21.2 L 97.9 0 Z M 141.11 -22.51 C 135.41 -26.54 132 -29.33 132 -32.43 C 132 -35.28 134.29 -37.63 137.14 -37.63 C 140 -37.63 142.35 -35.28 142.35 -32.43 L 148.55 -32.43 C 148.55 -38.69 143.41 -43.83 137.14 -43.83 C 130.88 -43.83 125.8 -38.69 125.8 -32.43 C 125.8 -26.35 130.88 -22.82 134.29 -20.09 L 137.21 -17.67 C 141.05 -14.51 142.35 -14.01 142.35 -10.97 C 142.35 -8.12 140 -5.77 137.14 -5.77 C 134.29 -5.77 132 -8.12 132 -10.97 L 125.8 -10.97 C 125.8 -4.71 130.88 0.43 137.14 0.43 C 143.41 0.43 148.55 -4.71 148.55 -10.97 C 148.55 -17.05 145.51 -19.03 141.11 -22.51 Z M 165.73 -37.2 L 172.92 -37.2 L 172.92 -43.4 L 152.27 -43.4 L 152.27 -37.2 L 159.53 -37.2 L 159.53 0 L 165.73 0 Z M 197.35 -27.9 L 197.35 -33.05 C 197.35 -38.75 192.76 -43.4 187.05 -43.4 L 176.7 -43.4 L 176.7 0 L 182.9 0 L 182.9 -17.55 L 187.05 -17.55 C 189.29 -17.55 191.15 -15.69 191.15 -13.45 L 191.15 0 L 197.35 0 L 197.35 -13.45 C 197.35 -16.24 196.23 -18.79 194.43 -20.65 C 196.23 -22.51 197.35 -25.11 197.35 -27.9 Z M 187.05 -23.75 L 182.9 -23.75 L 182.9 -37.2 L 187.05 -37.2 C 189.29 -37.2 191.15 -35.34 191.15 -33.05 L 191.15 -27.9 C 191.15 -25.61 189.29 -23.75 187.05 -23.75 Z M 207.33 -24.8 L 207.33 -37.2 L 219.73 -37.2 L 219.73 -43.4 L 201.13 -43.4 L 201.13 0 L 219.73 0 L 219.73 -6.2 L 207.33 -6.2 L 207.33 -18.6 L 215.57 -18.6 L 215.57 -24.8 Z M 245.33 0 L 245.33 -43.4 L 239.13 -43.4 L 239.13 -17.24 L 229.71 -43.4 L 223.51 -43.4 L 223.51 0 L 229.71 0 L 229.71 -26.16 L 239.13 0 Z M 265.67 -32.43 L 265.67 -29.33 L 271.87 -29.33 L 271.87 -32.43 C 271.87 -38.69 266.72 -43.83 260.46 -43.83 C 254.2 -43.83 249.12 -38.69 249.12 -32.43 L 249.12 -10.97 C 249.12 -4.71 254.2 0.43 260.46 0.43 C 266.72 0.43 271.87 -4.71 271.87 -10.97 L 271.87 -21.27 L 261.52 -21.27 L 261.52 -15.07 L 265.67 -15.07 L 265.67 -10.97 C 265.67 -8.12 263.31 -5.77 260.46 -5.77 C 257.61 -5.77 255.32 -8.12 255.32 -10.97 L 255.32 -32.43 C 255.32 -35.28 257.61 -37.63 260.46 -37.63 C 263.31 -37.63 265.67 -35.28 265.67 -32.43 Z M 289.04 -37.2 L 296.24 -37.2 L 296.24 -43.4 L 275.59 -43.4 L 275.59 -37.2 L 282.84 -37.2 L 282.84 0 L 289.04 0 Z M 321.84 0 L 321.84 -43.4 L 315.64 -43.4 L 315.64 -24.8 L 306.22 -24.8 L 306.22 -43.4 L 300.02 -43.4 L 300.02 0 L 306.22 0 L 306.22 -18.6 L 315.64 -18.6 L 315.64 0 Z" stroke-linecap="round" />
</g>
</g>
</g>
<g transform="matrix(1.9211538461538462 0 0 1.9211538461538462 639.3818687499999 722.2239726032352)" id="tagline-2642ffad-076e-452a-8f7a-bdcf8ab38020-logo"  >
<g style=""  paint-order="stroke"   >
		<g transform="matrix(1 0 0 1 0 0)" id="tagline-2642ffad-076e-452a-8f7a-bdcf8ab38020-logo-path-0"  >
<path style="stroke: none; stroke-width: 0; stroke-dasharray: none; stroke-linecap: butt; stroke-dashoffset: 0; stroke-linejoin: miter; stroke-miterlimit: 4; fill: rgb(37,87,124); fill-rule: nonzero; opacity: 1;"  paint-order="stroke"  transform=" translate(-108.595, 13.65)" d="M 8.27 -27.3 L 3.98 -27.3 L 0.86 0 L 3.98 0 L 4.52 -4.68 L 7.72 -4.68 L 8.27 0 L 11.39 0 Z M 7.41 -7.41 L 4.84 -7.41 L 6.12 -18.76 Z M 35.8 -27.3 L 31.9 -27.3 L 31.9 0 L 35.02 0 L 35.02 -17.55 L 38.53 0 L 42.43 0 L 42.43 -27.3 L 39.31 -27.3 L 39.31 -9.75 Z M 70.36 -27.3 L 66.07 -27.3 L 62.95 0 L 66.07 0 L 66.61 -4.68 L 69.81 -4.68 L 70.36 0 L 73.48 0 Z M 69.5 -7.41 L 66.92 -7.41 L 68.21 -18.76 Z M 97.11 -27.3 L 93.99 -27.3 L 93.99 0 L 102.3 0 L 102.3 -2.73 L 97.11 -2.73 Z M 123.67 -27.3 L 120.55 -27.3 L 124.25 -8.74 L 124.25 0 L 127.37 0 L 127.37 -8.89 L 131.08 -27.3 L 127.96 -27.3 L 125.81 -14.74 Z M 155.8 -27.69 C 152.76 -27.69 150.7 -26.21 150.7 -23.75 L 150.7 -19.5 C 150.7 -16.22 152.72 -14.31 154.4 -12.75 C 156.27 -11.08 157.72 -9.95 157.72 -7.8 L 157.72 -3.82 C 157.72 -2.89 156.9 -2.34 155.77 -2.34 C 154.6 -2.34 153.82 -2.92 153.82 -3.82 L 153.82 -7.8 L 150.7 -7.8 L 150.7 -3.55 C 150.7 -1.25 152.68 0.39 155.73 0.39 C 158.77 0.39 160.84 -1.09 160.84 -3.55 L 160.84 -7.8 C 160.84 -11.43 158.3 -13.46 156.51 -15.09 C 154.87 -16.54 153.82 -17.59 153.82 -19.5 L 153.82 -23.48 C 153.82 -24.41 154.63 -24.96 155.77 -24.96 C 156.94 -24.96 157.72 -24.38 157.72 -23.48 L 157.72 -19.5 L 160.84 -19.5 L 160.84 -23.75 C 160.84 -26.05 158.85 -27.69 155.8 -27.69 Z M 185.09 -27.3 L 181.97 -27.3 L 181.97 0 L 185.09 0 Z M 211.3 -27.69 C 208.26 -27.69 206.19 -26.21 206.19 -23.75 L 206.19 -19.5 C 206.19 -16.22 208.22 -14.31 209.9 -12.75 C 211.77 -11.08 213.21 -9.95 213.21 -7.8 L 213.21 -3.82 C 213.21 -2.89 212.39 -2.34 211.26 -2.34 C 210.09 -2.34 209.31 -2.92 209.31 -3.82 L 209.31 -7.8 L 206.19 -7.8 L 206.19 -3.55 C 206.19 -1.25 208.18 0.39 211.22 0.39 C 214.27 0.39 216.33 -1.09 216.33 -3.55 L 216.33 -7.8 C 216.33 -11.43 213.8 -13.46 212 -15.09 C 210.37 -16.54 209.31 -17.59 209.31 -19.5 L 209.31 -23.48 C 209.31 -24.41 210.13 -24.96 211.26 -24.96 C 212.43 -24.96 213.21 -24.38 213.21 -23.48 L 213.21 -19.5 L 216.33 -19.5 L 216.33 -23.75 C 216.33 -26.05 214.34 -27.69 211.3 -27.69 Z" stroke-linecap="round" />
</g>
</g>
</g>
</svg>