<?xml version="1.0" encoding="UTF-8" standalone="no" ?>
<!DOCTYPE svg PUBLIC "-//W3C//DTD SVG 1.1//EN" "http://www.w3.org/Graphics/SVG/1.1/DTD/svg11.dtd">
<svg xmlns="http://www.w3.org/2000/svg" xmlns:xlink="http://www.w3.org/1999/xlink" version="1.1" width="1280" height="1024" viewBox="0 0 1280 1024" xml:space="preserve">
<desc>Created with Fabric.js 5.3.0</desc>
<defs>
</defs>
<g transform="matrix(1 0 0 1 640 512)" id="background-logo"  >
<rect style="stroke: none; stroke-width: 0; stroke-dasharray: none; stroke-linecap: butt; stroke-dashoffset: 0; stroke-linejoin: miter; stroke-miterlimit: 4; fill: rgb(3,24,35); fill-rule: nonzero; opacity: 1;"  paint-order="stroke"  x="-640" y="-512" rx="0" ry="0" width="1280" height="1024" />
</g>
<g transform="matrix(1.9211538461538462 0 0 1.9211538461538462 640 371.815830234611)" id="logo-logo"  >
<g style=""  paint-order="stroke"   >
		<g transform="matrix(2.714010655678147 0 0 -2.714010655678147 0 -2.842171e-14)"  >
<linearGradient id="SVGID_2_584618" gradientUnits="userSpaceOnUse" gradientTransform="matrix(49.665009 -49.665009 -49.665009 -49.665009 59.822494 102.0125)"  x1="0" y1="0" x2="1" y2="0">
<stop offset="0%" style="stop-color:rgb(14,255,203);stop-opacity: 1"/>
<stop offset="100%" style="stop-color:rgb(0,134,166);stop-opacity: 1"/>
</linearGradient>
<path style="stroke: none; stroke-width: 1; stroke-dasharray: none; stroke-linecap: butt; stroke-dashoffset: 0; stroke-linejoin: miter; stroke-miterlimit: 4; fill: url(#SVGID_2_584618); fill-rule: nonzero; opacity: 1;"  paint-order="stroke"  transform=" translate(-84.655, -77.17999999999998)" d="M 84.65 58.55 L 96.95 65.64999999999999 L 82.96000000000001 73.72999999999999 L 60.85000000000001 86.49999999999999 L 60.85000000000001 90.91999999999999 L 84.66000000000001 104.66999999999999 L 84.67000000000002 104.65999999999998 L 92.35000000000002 109.09999999999998 L 84.66000000000003 113.53999999999998 L 53.17 95.36 L 53.17 59 L 69.3 49.69 L 76.97999999999999 54.12 L 60.849999999999994 63.43 L 60.849999999999994 77.648 L 68.53 73.208 L 68.53 67.87 Z M 100.02000000000001 104.66999999999999 L 92.34 100.22999999999999 L 108.46000000000001 90.91999999999999 L 108.46000000000001 76.75 L 100.78 81.186 L 100.78 86.49 L 84.66 95.8 L 72.369 88.705 L 108.46 67.87 L 108.46 63.43 L 84.66 49.69 L 76.98 45.26 L 84.66 40.82 L 116.14 59 L 116.14 95.36 z" stroke-linecap="round" />
</g>
</g>
</g>
<g transform="matrix(1.9211538461538462 0 0 1.9211538461538462 637.6129663461537 670.6099964255266)" id="text-logo"  >
<g style=""  paint-order="stroke"   >
		<g transform="matrix(1 0 0 1 5.684342e-14 0)" id="text-logo-path-0"  >
<path style="stroke: rgb(255,255,255); stroke-width: 0; stroke-dasharray: none; stroke-linecap: butt; stroke-dashoffset: 0; stroke-linejoin: miter; stroke-miterlimit: 4; fill: rgb(24,211,217); fill-rule: nonzero; opacity: 1;"  paint-order="stroke"  transform=" translate(-180.21499999999997, 24.395)" d="M 14.7 0.7 L 14.7 0.7 Q 10.92 0.7 7.81 -1.23 Q 4.69 -3.15 2.84 -6.34 Q 0.98 -9.52 0.98 -13.37 L 0.98 -13.37 L 0.98 -16.59 Q 0.98 -16.94 1.33 -16.94 L 1.33 -16.94 L 9.17 -16.94 Q 9.45 -16.94 9.45 -16.59 L 9.45 -16.59 L 9.45 -13.37 Q 9.45 -11.06 10.99 -9.42 Q 12.53 -7.77 14.7 -7.77 L 14.7 -7.77 Q 16.87 -7.77 18.41 -9.45 Q 19.95 -11.13 19.95 -13.37 L 19.95 -13.37 Q 19.95 -15.96 16.59 -17.85 L 16.59 -17.85 Q 15.47 -18.48 13.09 -19.81 Q 10.71 -21.14 8.61 -22.33 L 8.61 -22.33 Q 4.76 -24.57 2.91 -27.97 Q 1.05 -31.36 1.05 -35.63 L 1.05 -35.63 Q 1.05 -39.55 2.94 -42.67 Q 4.83 -45.78 7.95 -47.6 Q 11.06 -49.42 14.7 -49.42 L 14.7 -49.42 Q 18.41 -49.42 21.53 -47.57 Q 24.64 -45.71 26.5 -42.6 Q 28.35 -39.48 28.35 -35.63 L 28.35 -35.63 L 28.35 -29.89 Q 28.35 -29.61 28.07 -29.61 L 28.07 -29.61 L 20.23 -29.61 Q 19.95 -29.61 19.95 -29.89 L 19.95 -29.89 L 19.88 -35.63 Q 19.88 -38.08 18.34 -39.62 Q 16.8 -41.16 14.7 -41.16 L 14.7 -41.16 Q 12.53 -41.16 10.99 -39.52 Q 9.45 -37.87 9.45 -35.63 L 9.45 -35.63 Q 9.45 -33.32 10.43 -31.78 Q 11.41 -30.24 14 -28.84 L 14 -28.84 Q 14.35 -28.63 15.37 -28.11 Q 16.38 -27.58 17.57 -26.92 Q 18.76 -26.25 19.71 -25.76 Q 20.65 -25.27 20.86 -25.13 L 20.86 -25.13 Q 24.36 -23.17 26.39 -20.34 Q 28.42 -17.5 28.42 -13.37 L 28.42 -13.37 Q 28.42 -9.38 26.57 -6.2 Q 24.71 -3.01 21.6 -1.16 Q 18.48 0.7 14.7 0.7 Z M 59.71 0 L 51.8 0 Q 51.52 0 51.52 -0.35 L 51.52 -0.35 L 51.52 -40.25 L 42.42 -40.25 Q 42.07 -40.25 42.07 -40.6 L 42.07 -40.6 L 42.14 -48.44 Q 42.14 -48.72 42.42 -48.72 L 42.42 -48.72 L 69.02 -48.72 Q 69.37 -48.72 69.37 -48.44 L 69.37 -48.44 L 69.37 -40.6 Q 69.37 -40.25 69.09 -40.25 L 69.09 -40.25 L 59.92 -40.25 L 59.99 -0.35 Q 59.99 0 59.71 0 L 59.71 0 Z M 92.82 0 L 84.91 0 Q 84.63 0 84.63 -0.35 L 84.63 -0.35 L 84.77 -48.44 Q 84.77 -48.72 85.05 -48.72 L 85.05 -48.72 L 99.19 -48.72 Q 102.97 -48.72 106.16 -46.87 Q 109.34 -45.01 111.23 -41.9 Q 113.12 -38.78 113.12 -34.86 L 113.12 -34.86 Q 113.12 -32.27 112.35 -30.21 Q 111.58 -28.14 110.53 -26.71 Q 109.48 -25.27 108.64 -24.57 L 108.64 -24.57 Q 112.42 -20.37 112.42 -14.7 L 112.42 -14.7 L 112.49 -0.35 Q 112.49 0 112.14 0 L 112.14 0 L 104.23 0 Q 103.95 0 103.95 -0.21 L 103.95 -0.21 L 103.95 -14.7 Q 103.95 -17.22 102.16 -19.08 Q 100.38 -20.93 97.79 -20.93 L 97.79 -20.93 L 93.17 -20.93 L 93.1 -0.35 Q 93.1 0 92.82 0 L 92.82 0 Z M 93.17 -40.32 L 93.17 -29.33 L 99.19 -29.33 Q 101.36 -29.33 103.04 -30.94 Q 104.72 -32.55 104.72 -34.86 L 104.72 -34.86 Q 104.72 -37.1 103.08 -38.71 Q 101.43 -40.32 99.19 -40.32 L 99.19 -40.32 L 93.17 -40.32 Z M 127.82 -0.35 L 127.82 -0.35 L 136.5 -48.44 Q 136.57 -48.72 136.85 -48.72 L 136.85 -48.72 L 147 -48.72 Q 147.28 -48.72 147.35 -48.44 L 147.35 -48.44 L 155.68 -0.35 Q 155.75 0 155.4 0 L 155.4 0 L 147.63 0 Q 147.35 0 147.28 -0.35 L 147.28 -0.35 L 146.51 -5.46 L 136.99 -5.46 L 136.22 -0.35 Q 136.15 0 135.87 0 L 135.87 0 L 128.1 0 Q 127.82 0 127.82 -0.35 Z M 141.54 -32.62 L 138.39 -12.95 L 145.11 -12.95 L 142.24 -32.62 L 141.82 -35.21 L 141.54 -32.62 Z M 183.47 0 L 175.56 0 Q 175.28 0 175.28 -0.35 L 175.28 -0.35 L 175.28 -40.25 L 166.18 -40.25 Q 165.83 -40.25 165.83 -40.6 L 165.83 -40.6 L 165.9 -48.44 Q 165.9 -48.72 166.18 -48.72 L 166.18 -48.72 L 192.78 -48.72 Q 193.13 -48.72 193.13 -48.44 L 193.13 -48.44 L 193.13 -40.6 Q 193.13 -40.25 192.85 -40.25 L 192.85 -40.25 L 183.68 -40.25 L 183.75 -0.35 Q 183.75 0 183.47 0 L 183.47 0 Z M 231.28 0 L 208.67 0 Q 208.39 0 208.39 -0.35 L 208.39 -0.35 L 208.46 -48.44 Q 208.46 -48.72 208.74 -48.72 L 208.74 -48.72 L 231.21 -48.72 Q 231.49 -48.72 231.49 -48.37 L 231.49 -48.37 L 231.49 -40.53 Q 231.49 -40.25 231.21 -40.25 L 231.21 -40.25 L 216.86 -40.25 L 216.86 -29.33 L 231.21 -29.33 Q 231.49 -29.33 231.49 -29.05 L 231.49 -29.05 L 231.56 -21.14 Q 231.56 -20.86 231.28 -20.86 L 231.28 -20.86 L 216.86 -20.86 L 216.86 -8.61 L 231.28 -8.61 Q 231.56 -8.61 231.56 -8.26 L 231.56 -8.26 L 231.56 -0.28 Q 231.56 0 231.28 0 L 231.28 0 Z M 261.31 0.7 L 261.31 0.7 Q 257.53 0.7 254.45 -1.19 Q 251.37 -3.08 249.52 -6.27 Q 247.66 -9.45 247.66 -13.37 L 247.66 -13.37 L 247.66 -35.56 Q 247.66 -39.34 249.52 -42.53 Q 251.37 -45.71 254.49 -47.6 Q 257.6 -49.49 261.31 -49.49 L 261.31 -49.49 Q 265.16 -49.49 268.28 -47.64 Q 271.39 -45.78 273.21 -42.63 Q 275.03 -39.48 275.03 -35.56 L 275.03 -35.56 L 275.03 -32.34 Q 275.03 -32.06 274.68 -32.06 L 274.68 -32.06 L 266.84 -32.06 Q 266.56 -32.06 266.56 -32.34 L 266.56 -32.34 L 266.56 -35 Q 266.56 -37.66 265.06 -39.41 Q 263.55 -41.16 261.31 -41.16 L 261.31 -41.16 Q 259.28 -41.16 257.71 -39.48 Q 256.13 -37.8 256.13 -35.56 L 256.13 -35.56 L 256.13 -13.37 Q 256.13 -11.06 257.67 -9.42 Q 259.21 -7.77 261.31 -7.77 L 261.31 -7.77 Q 263.55 -7.77 265.06 -9.38 Q 266.56 -10.99 266.56 -13.37 L 266.56 -13.37 L 266.56 -16.8 L 261.66 -16.8 Q 261.31 -16.8 261.31 -17.15 L 261.31 -17.15 L 261.31 -24.99 Q 261.31 -25.34 261.66 -25.34 L 261.66 -25.34 L 274.75 -25.34 Q 275.03 -25.34 275.03 -24.99 L 275.03 -24.99 L 275.03 -13.37 Q 275.03 -9.45 273.18 -6.27 Q 271.32 -3.08 268.24 -1.19 Q 265.16 0.7 261.31 0.7 Z M 314.72 0 L 292.11 0 Q 291.83 0 291.83 -0.35 L 291.83 -0.35 L 291.9 -48.44 Q 291.9 -48.72 292.18 -48.72 L 292.18 -48.72 L 314.65 -48.72 Q 314.93 -48.72 314.93 -48.37 L 314.93 -48.37 L 314.93 -40.53 Q 314.93 -40.25 314.65 -40.25 L 314.65 -40.25 L 300.3 -40.25 L 300.3 -29.33 L 314.65 -29.33 Q 314.93 -29.33 314.93 -29.05 L 314.93 -29.05 L 315 -21.14 Q 315 -20.86 314.72 -20.86 L 314.72 -20.86 L 300.3 -20.86 L 300.3 -8.61 L 314.72 -8.61 Q 315 -8.61 315 -8.26 L 315 -8.26 L 315 -0.28 Q 315 0 314.72 0 L 314.72 0 Z M 340.69 0 L 333.69 0 Q 333.13 0 333.13 -0.49 L 333.13 -0.49 L 333.06 -48.16 Q 333.06 -48.72 333.62 -48.72 L 333.62 -48.72 L 339.92 -48.72 L 351.75 -21.14 L 351.4 -48.16 Q 351.4 -48.72 352.03 -48.72 L 352.03 -48.72 L 358.96 -48.72 Q 359.38 -48.72 359.38 -48.16 L 359.38 -48.16 L 359.45 -0.42 Q 359.45 0 359.1 0 L 359.1 0 L 352.94 0 L 340.83 -25.76 L 341.32 -0.56 Q 341.32 0 340.69 0 L 340.69 0 Z" stroke-linecap="round" />
</g>
</g>
</g>
<g transform="matrix(1.9211538461538462 0 0 1.9211538461538462 639.6628375 789.0803149875587)" id="tagline-7638aeb3-da98-40cc-b7fa-88646465741a-logo"  >
<g style=""  paint-order="stroke"   >
		<g transform="matrix(1 0 0 1 0 -8.45519999999999)" id="tagline-7638aeb3-da98-40cc-b7fa-88646465741a-logo-path-0"  >
<path style="stroke: none; stroke-width: 0; stroke-dasharray: none; stroke-linecap: butt; stroke-dashoffset: 0; stroke-linejoin: miter; stroke-miterlimit: 4; fill: rgb(24,211,217); fill-rule: nonzero; opacity: 1;"  paint-order="stroke"  transform=" translate(-310.09999999999997, 4.55)" d="M 0.52 -9.1 L 0.52 0 L 4.81 0 L 4.81 -1.43 L 1.95 -1.43 L 1.95 -3.97 L 4.55 -3.97 L 4.55 -5.4 L 1.95 -5.4 L 1.95 -7.67 L 4.81 -7.67 L 4.81 -9.1 Z M 8.42 -9.1 L 8.42 0 L 9.85 0 L 9.85 -5.38 L 11.54 0 L 12.32 0 L 14.01 -5.92 L 14.01 0 L 15.44 0 L 15.44 -9.1 L 13.49 -9.1 L 11.88 -3.46 L 10.11 -9.1 Z M 21.27 -9.1 L 18.99 -9.1 L 18.99 0 L 20.42 0 L 20.42 -3.43 L 21.27 -3.43 C 23.01 -3.43 24.1 -4.6 24.1 -6.27 C 24.1 -8.01 22.93 -9.1 21.27 -9.1 Z M 21.27 -4.86 L 20.42 -4.86 L 20.42 -7.67 L 21.27 -7.67 C 22.26 -7.67 22.67 -7.28 22.67 -6.27 C 22.67 -5.28 22.28 -4.86 21.27 -4.86 Z M 27.16 -6.68 L 27.16 -2.42 C 27.16 -0.94 28.17 0.13 29.72 0.13 C 31.2 0.13 32.27 -0.88 32.27 -2.42 L 32.27 -6.68 C 32.27 -8.16 31.25 -9.23 29.72 -9.23 C 28.24 -9.23 27.16 -8.24 27.16 -6.68 Z M 28.59 -2.42 L 28.59 -6.68 C 28.59 -7.51 28.9 -7.8 29.72 -7.8 C 30.54 -7.8 30.84 -7.49 30.84 -6.68 L 30.84 -2.42 C 30.84 -1.6 30.52 -1.3 29.72 -1.3 C 28.89 -1.3 28.59 -1.61 28.59 -2.42 Z M 36.63 0 L 38.36 0 L 38.95 -4.55 L 39.53 0 L 41.26 0 L 42.82 -9.1 L 41.39 -9.1 L 40.42 -3.45 L 39.53 -9.1 L 38.36 -9.1 L 37.48 -3.45 L 36.5 -9.1 L 35.07 -9.1 Z M 46.05 -9.1 L 46.05 0 L 50.34 0 L 50.34 -1.43 L 47.48 -1.43 L 47.48 -3.97 L 50.08 -3.97 L 50.08 -5.4 L 47.48 -5.4 L 47.48 -7.67 L 50.34 -7.67 L 50.34 -9.1 Z M 56.5 -9.1 L 53.95 -9.1 L 53.95 0 L 55.38 0 L 55.38 -3.98 L 56.5 -3.98 C 57.32 -3.98 57.63 -3.68 57.63 -2.85 L 57.63 0 L 59.06 0 L 59.06 -2.85 C 59.06 -3.61 58.8 -4.25 58.34 -4.69 C 58.8 -5.15 59.06 -5.8 59.06 -6.54 C 59.06 -8.09 57.99 -9.1 56.5 -9.1 Z M 56.5 -5.41 L 55.38 -5.41 L 55.38 -7.67 L 56.5 -7.67 C 57.32 -7.67 57.63 -7.37 57.63 -6.54 C 57.63 -5.73 57.32 -5.41 56.5 -5.41 Z M 67.55 -9.1 L 67.55 0 L 71.84 0 L 71.84 -1.43 L 68.98 -1.43 L 68.98 -9.1 Z M 75.14 -9.1 L 75.14 0 L 79.43 0 L 79.43 -1.43 L 76.57 -1.43 L 76.57 -3.97 L 79.17 -3.97 L 79.17 -5.4 L 76.57 -5.4 L 76.57 -7.67 L 79.43 -7.67 L 79.43 -9.1 Z M 84.03 -9.1 L 82.47 0 L 83.9 0 L 84.06 -0.91 L 86 -0.91 L 86.15 0 L 87.58 0 L 86.02 -9.1 Z M 84.31 -2.34 L 85.03 -6.57 L 85.75 -2.34 Z M 93.42 -9.1 L 90.86 -9.1 L 90.86 0 L 93.42 0 C 94.95 0 95.97 -1.07 95.97 -2.55 L 95.97 -6.55 C 95.97 -8.03 94.95 -9.1 93.42 -9.1 Z M 93.42 -1.43 L 92.29 -1.43 L 92.29 -7.67 L 93.42 -7.67 C 94.24 -7.67 94.54 -7.36 94.54 -6.55 L 94.54 -2.55 C 94.54 -1.74 94.24 -1.43 93.42 -1.43 Z M 99.45 -9.1 L 99.45 0 L 103.74 0 L 103.74 -1.43 L 100.88 -1.43 L 100.88 -3.97 L 103.48 -3.97 L 103.48 -5.4 L 100.88 -5.4 L 100.88 -7.67 L 103.74 -7.67 L 103.74 -9.1 Z M 109.9 -9.1 L 107.35 -9.1 L 107.35 0 L 108.78 0 L 108.78 -3.98 L 109.9 -3.98 C 110.72 -3.98 111.03 -3.68 111.03 -2.85 L 111.03 0 L 112.46 0 L 112.46 -2.85 C 112.46 -3.61 112.2 -4.25 111.75 -4.69 C 112.2 -5.15 112.46 -5.8 112.46 -6.54 C 112.46 -8.09 111.4 -9.1 109.9 -9.1 Z M 109.9 -5.41 L 108.78 -5.41 L 108.78 -7.67 L 109.9 -7.67 C 110.72 -7.67 111.03 -7.37 111.03 -6.54 C 111.03 -5.73 110.72 -5.41 109.9 -5.41 Z M 119.2 -6.68 L 119.2 -6.03 L 120.63 -6.03 L 120.63 -6.68 C 120.63 -8.23 119.57 -9.23 118.08 -9.23 C 116.52 -9.23 115.52 -8.18 115.52 -6.68 C 115.52 -5.25 116.7 -4.56 117.6 -4.04 C 118.56 -3.48 119.2 -3.13 119.2 -2.42 C 119.2 -1.59 118.9 -1.3 118.08 -1.3 C 117.23 -1.3 116.95 -1.6 116.95 -2.42 L 116.95 -3.07 L 115.52 -3.07 L 115.52 -2.42 C 115.52 -0.92 116.52 0.13 118.08 0.13 C 119.57 0.13 120.63 -0.87 120.63 -2.42 C 120.63 -3.99 119.27 -4.72 118.33 -5.29 C 117.44 -5.79 116.95 -6.08 116.95 -6.68 C 116.95 -7.5 117.23 -7.8 118.08 -7.8 C 118.9 -7.8 119.2 -7.51 119.2 -6.68 Z M 130.47 -9.1 L 128.91 0 L 130.34 0 L 130.49 -0.91 L 132.43 -0.91 L 132.59 0 L 134.02 0 L 132.46 -9.1 Z M 130.74 -2.34 L 131.47 -6.57 L 132.18 -2.34 Z M 137.29 -9.1 L 137.29 0 L 138.72 0 L 138.72 -5.38 L 140.97 0 L 142.4 0 L 142.4 -9.1 L 140.97 -9.1 L 140.97 -3.42 L 138.59 -9.1 Z M 148.55 -9.1 L 145.99 -9.1 L 145.99 0 L 148.55 0 C 150.08 0 151.1 -1.07 151.1 -2.55 L 151.1 -6.55 C 151.1 -8.03 150.08 -9.1 148.55 -9.1 Z M 148.55 -1.43 L 147.42 -1.43 L 147.42 -7.67 L 148.55 -7.67 C 149.37 -7.67 149.67 -7.36 149.67 -6.55 L 149.67 -2.55 C 149.67 -1.74 149.37 -1.43 148.55 -1.43 Z M 164.2 -9.1 L 159.13 -9.1 L 159.13 -7.67 L 160.95 -7.67 L 160.95 0 L 162.38 0 L 162.38 -7.67 L 164.2 -7.67 Z M 167.3 -9.1 L 167.3 0 L 171.59 0 L 171.59 -1.43 L 168.73 -1.43 L 168.73 -3.97 L 171.33 -3.97 L 171.33 -5.4 L 168.73 -5.4 L 168.73 -7.67 L 171.59 -7.67 L 171.59 -9.1 Z M 176.19 -9.1 L 174.63 0 L 176.06 0 L 176.21 -0.91 L 178.15 -0.91 L 178.31 0 L 179.74 0 L 178.18 -9.1 Z M 176.46 -2.34 L 177.19 -6.57 L 177.9 -2.34 Z M 183.01 -9.1 L 183.01 0 L 184.44 0 L 184.44 -5.38 L 186.13 0 L 186.91 0 L 188.6 -5.92 L 188.6 0 L 190.03 0 L 190.03 -9.1 L 188.08 -9.1 L 186.47 -3.46 L 184.7 -9.1 Z M 196.92 -6.68 L 196.92 -6.03 L 198.35 -6.03 L 198.35 -6.68 C 198.35 -8.23 197.3 -9.23 195.81 -9.23 C 194.25 -9.23 193.24 -8.18 193.24 -6.68 C 193.24 -5.25 194.43 -4.56 195.32 -4.04 C 196.29 -3.48 196.92 -3.13 196.92 -2.42 C 196.92 -1.59 196.62 -1.3 195.81 -1.3 C 194.96 -1.3 194.67 -1.6 194.67 -2.42 L 194.67 -3.07 L 193.24 -3.07 L 193.24 -2.42 C 193.24 -0.92 194.25 0.13 195.81 0.13 C 197.3 0.13 198.35 -0.87 198.35 -2.42 C 198.35 -3.99 197 -4.72 196.05 -5.29 C 195.17 -5.79 194.67 -6.08 194.67 -6.68 C 194.67 -7.5 194.96 -7.8 195.81 -7.8 C 196.62 -7.8 196.92 -7.51 196.92 -6.68 Z M 211.34 -9.1 L 206.27 -9.1 L 206.27 -7.67 L 208.09 -7.67 L 208.09 0 L 209.52 0 L 209.52 -7.67 L 211.34 -7.67 Z M 214.15 -6.68 L 214.15 -2.42 C 214.15 -0.94 215.16 0.13 216.71 0.13 C 218.19 0.13 219.26 -0.88 219.26 -2.42 L 219.26 -6.68 C 219.26 -8.16 218.24 -9.23 216.71 -9.23 C 215.23 -9.23 214.15 -8.24 214.15 -6.68 Z M 215.58 -2.42 L 215.58 -6.68 C 215.58 -7.51 215.89 -7.8 216.71 -7.8 C 217.53 -7.8 217.83 -7.49 217.83 -6.68 L 217.83 -2.42 C 217.83 -1.6 217.52 -1.3 216.71 -1.3 C 215.88 -1.3 215.58 -1.61 215.58 -2.42 Z M 229.18 -9.1 L 227.62 0 L 229.05 0 L 229.2 -0.91 L 231.14 -0.91 L 231.3 0 L 232.73 0 L 231.17 -9.1 Z M 229.45 -2.34 L 230.18 -6.57 L 230.89 -2.34 Z M 235.57 -6.68 L 235.57 -2.42 C 235.57 -0.94 236.59 0.13 238.13 0.13 C 239.62 0.13 240.68 -0.88 240.68 -2.42 L 240.68 -3.07 L 239.25 -3.07 L 239.25 -2.42 C 239.25 -1.6 238.94 -1.3 238.13 -1.3 C 237.3 -1.3 237 -1.61 237 -2.42 L 237 -6.68 C 237 -7.51 237.31 -7.8 238.13 -7.8 C 238.95 -7.8 239.25 -7.49 239.25 -6.68 L 239.25 -6.03 L 240.68 -6.03 L 240.68 -6.68 C 240.68 -8.16 239.67 -9.23 238.13 -9.23 C 236.65 -9.23 235.57 -8.24 235.57 -6.68 Z M 244.09 -9.1 L 244.09 0 L 245.52 0 L 245.52 -3.97 L 247.77 -3.97 L 247.77 0 L 249.2 0 L 249.2 -9.1 L 247.77 -9.1 L 247.77 -5.4 L 245.52 -5.4 L 245.52 -9.1 Z M 252.72 -9.1 L 252.72 0 L 254.15 0 L 254.15 -9.1 Z M 257.65 -9.1 L 257.65 0 L 261.94 0 L 261.94 -1.43 L 259.08 -1.43 L 259.08 -3.97 L 261.68 -3.97 L 261.68 -5.4 L 259.08 -5.4 L 259.08 -7.67 L 261.94 -7.67 L 261.94 -9.1 Z M 266.71 0 L 268.7 0 L 270.26 -9.1 L 268.83 -9.1 L 267.71 -2.54 L 266.58 -9.1 L 265.15 -9.1 Z M 273.48 -9.1 L 273.48 0 L 277.77 0 L 277.77 -1.43 L 274.91 -1.43 L 274.91 -3.97 L 277.51 -3.97 L 277.51 -5.4 L 274.91 -5.4 L 274.91 -7.67 L 277.77 -7.67 L 277.77 -9.1 Z M 288.72 -9.1 L 286.44 -9.1 L 286.44 0 L 287.87 0 L 287.87 -3.43 L 288.72 -3.43 C 290.46 -3.43 291.55 -4.6 291.55 -6.27 C 291.55 -8.01 290.38 -9.1 288.72 -9.1 Z M 288.72 -4.86 L 287.87 -4.86 L 287.87 -7.67 L 288.72 -7.67 C 289.7 -7.67 290.12 -7.28 290.12 -6.27 C 290.12 -5.28 289.73 -4.86 288.72 -4.86 Z M 294.89 -9.1 L 294.89 0 L 299.18 0 L 299.18 -1.43 L 296.32 -1.43 L 296.32 -3.97 L 298.92 -3.97 L 298.92 -5.4 L 296.32 -5.4 L 296.32 -7.67 L 299.18 -7.67 L 299.18 -9.1 Z M 303.78 -9.1 L 302.22 0 L 303.65 0 L 303.81 -0.91 L 305.75 -0.91 L 305.9 0 L 307.33 0 L 305.77 -9.1 Z M 304.06 -2.34 L 304.78 -6.57 L 305.5 -2.34 Z M 310.61 -9.1 L 310.61 0 L 312.04 0 L 312.04 -3.2 L 312.57 -4.02 L 314.35 0 L 316.04 0 L 313.49 -5.46 L 315.81 -9.1 L 314.25 -9.1 L 312.04 -5.68 L 312.04 -9.1 Z M 326.42 -9.1 L 324.14 -9.1 L 324.14 0 L 325.57 0 L 325.57 -3.43 L 326.42 -3.43 C 328.16 -3.43 329.25 -4.6 329.25 -6.27 C 329.25 -8.01 328.08 -9.1 326.42 -9.1 Z M 326.42 -4.86 L 325.57 -4.86 L 325.57 -7.67 L 326.42 -7.67 C 327.4 -7.67 327.82 -7.28 327.82 -6.27 C 327.82 -5.28 327.43 -4.86 326.42 -4.86 Z M 332.59 -9.1 L 332.59 0 L 336.88 0 L 336.88 -1.43 L 334.02 -1.43 L 334.02 -3.97 L 336.62 -3.97 L 336.62 -5.4 L 334.02 -5.4 L 334.02 -7.67 L 336.88 -7.67 L 336.88 -9.1 Z M 343.04 -9.1 L 340.5 -9.1 L 340.5 0 L 341.93 0 L 341.93 -3.98 L 343.04 -3.98 C 343.86 -3.98 344.17 -3.68 344.17 -2.85 L 344.17 0 L 345.6 0 L 345.6 -2.85 C 345.6 -3.61 345.34 -4.25 344.89 -4.69 C 345.34 -5.15 345.6 -5.8 345.6 -6.54 C 345.6 -8.09 344.54 -9.1 343.04 -9.1 Z M 343.04 -5.41 L 341.93 -5.41 L 341.93 -7.67 L 343.04 -7.67 C 343.86 -7.67 344.17 -7.37 344.17 -6.54 C 344.17 -5.73 343.86 -5.41 343.04 -5.41 Z M 349.04 -9.1 L 349.04 0 L 350.47 0 L 350.47 -3.97 L 353.07 -3.97 L 353.07 -5.4 L 350.47 -5.4 L 350.47 -7.67 L 353.33 -7.67 L 353.33 -9.1 Z M 356.32 -6.68 L 356.32 -2.42 C 356.32 -0.94 357.33 0.13 358.88 0.13 C 360.36 0.13 361.43 -0.88 361.43 -2.42 L 361.43 -6.68 C 361.43 -8.16 360.41 -9.23 358.88 -9.23 C 357.4 -9.23 356.32 -8.24 356.32 -6.68 Z M 357.75 -2.42 L 357.75 -6.68 C 357.75 -7.51 358.06 -7.8 358.88 -7.8 C 359.7 -7.8 360 -7.49 360 -6.68 L 360 -2.42 C 360 -1.6 359.68 -1.3 358.88 -1.3 C 358.05 -1.3 357.75 -1.61 357.75 -2.42 Z M 367.42 -9.1 L 364.87 -9.1 L 364.87 0 L 366.3 0 L 366.3 -3.98 L 367.42 -3.98 C 368.24 -3.98 368.55 -3.68 368.55 -2.85 L 368.55 0 L 369.98 0 L 369.98 -2.85 C 369.98 -3.61 369.72 -4.25 369.26 -4.69 C 369.72 -5.15 369.98 -5.8 369.98 -6.54 C 369.98 -8.09 368.91 -9.1 367.42 -9.1 Z M 367.42 -5.41 L 366.3 -5.41 L 366.3 -7.67 L 367.42 -7.67 C 368.24 -7.67 368.55 -7.37 368.55 -6.54 C 368.55 -5.73 368.24 -5.41 367.42 -5.41 Z M 373.41 -9.1 L 373.41 0 L 374.84 0 L 374.84 -5.38 L 376.53 0 L 377.31 0 L 379 -5.92 L 379 0 L 380.43 0 L 380.43 -9.1 L 378.48 -9.1 L 376.87 -3.46 L 375.1 -9.1 Z M 385.1 -9.1 L 383.54 0 L 384.97 0 L 385.12 -0.91 L 387.06 -0.91 L 387.22 0 L 388.65 0 L 387.09 -9.1 Z M 385.37 -2.34 L 386.1 -6.57 L 386.81 -2.34 Z M 391.92 -9.1 L 391.92 0 L 393.35 0 L 393.35 -5.38 L 395.6 0 L 397.03 0 L 397.03 -9.1 L 395.6 -9.1 L 395.6 -3.42 L 393.22 -9.1 Z M 400.46 -6.68 L 400.46 -2.42 C 400.46 -0.94 401.48 0.13 403.03 0.13 C 404.51 0.13 405.57 -0.88 405.57 -2.42 L 405.57 -3.07 L 404.14 -3.07 L 404.14 -2.42 C 404.14 -1.6 403.83 -1.3 403.03 -1.3 C 402.19 -1.3 401.89 -1.61 401.89 -2.42 L 401.89 -6.68 C 401.89 -7.51 402.21 -7.8 403.03 -7.8 C 403.84 -7.8 404.14 -7.49 404.14 -6.68 L 404.14 -6.03 L 405.57 -6.03 L 405.57 -6.68 C 405.57 -8.16 404.56 -9.23 403.03 -9.23 C 401.54 -9.23 400.46 -8.24 400.46 -6.68 Z M 408.98 -9.1 L 408.98 0 L 413.27 0 L 413.27 -1.43 L 410.41 -1.43 L 410.41 -3.97 L 413.01 -3.97 L 413.01 -5.4 L 410.41 -5.4 L 410.41 -7.67 L 413.27 -7.67 L 413.27 -9.1 Z M 426.5 -9.1 L 421.43 -9.1 L 421.43 -7.67 L 423.25 -7.67 L 423.25 0 L 424.68 0 L 424.68 -7.67 L 426.5 -7.67 Z M 429.6 -9.1 L 429.6 0 L 431.03 0 L 431.03 -3.97 L 433.28 -3.97 L 433.28 0 L 434.71 0 L 434.71 -9.1 L 433.28 -9.1 L 433.28 -5.4 L 431.03 -5.4 L 431.03 -9.1 Z M 440.78 -9.1 L 438.23 -9.1 L 438.23 0 L 439.66 0 L 439.66 -3.98 L 440.78 -3.98 C 441.6 -3.98 441.91 -3.68 441.91 -2.85 L 441.91 0 L 443.34 0 L 443.34 -2.85 C 443.34 -3.61 443.08 -4.25 442.62 -4.69 C 443.08 -5.15 443.34 -5.8 443.34 -6.54 C 443.34 -8.09 442.27 -9.1 440.78 -9.1 Z M 440.78 -5.41 L 439.66 -5.41 L 439.66 -7.67 L 440.78 -7.67 C 441.6 -7.67 441.91 -7.37 441.91 -6.54 C 441.91 -5.73 441.6 -5.41 440.78 -5.41 Z M 446.55 -6.68 L 446.55 -2.42 C 446.55 -0.94 447.56 0.13 449.11 0.13 C 450.59 0.13 451.66 -0.88 451.66 -2.42 L 451.66 -6.68 C 451.66 -8.16 450.64 -9.23 449.11 -9.23 C 447.63 -9.23 446.55 -8.24 446.55 -6.68 Z M 447.98 -2.42 L 447.98 -6.68 C 447.98 -7.51 448.29 -7.8 449.11 -7.8 C 449.93 -7.8 450.23 -7.49 450.23 -6.68 L 450.23 -2.42 C 450.23 -1.6 449.92 -1.3 449.11 -1.3 C 448.28 -1.3 447.98 -1.61 447.98 -2.42 Z M 457.59 0.13 C 459.07 0.13 460.13 -0.88 460.13 -2.42 L 460.13 -9.1 L 458.7 -9.1 L 458.7 -2.42 C 458.7 -1.6 458.39 -1.3 457.59 -1.3 C 456.75 -1.3 456.46 -1.61 456.46 -2.42 L 456.46 -9.1 L 455.03 -9.1 L 455.03 -2.42 C 455.03 -0.94 456.04 0.13 457.59 0.13 Z M 463.46 -6.68 L 463.46 -2.42 C 463.46 -0.94 464.48 0.13 466.02 0.13 C 467.51 0.13 468.57 -0.88 468.57 -2.42 L 468.57 -4.63 L 465.97 -4.63 L 465.97 -3.2 L 467.14 -3.2 L 467.14 -2.42 C 467.14 -1.6 466.83 -1.3 466.02 -1.3 C 465.19 -1.3 464.89 -1.61 464.89 -2.42 L 464.89 -6.68 C 464.89 -7.51 465.2 -7.8 466.02 -7.8 C 466.84 -7.8 467.14 -7.49 467.14 -6.68 L 467.14 -6.03 L 468.57 -6.03 L 468.57 -6.68 C 468.57 -8.16 467.56 -9.23 466.02 -9.23 C 464.54 -9.23 463.46 -8.24 463.46 -6.68 Z M 471.95 -9.1 L 471.95 0 L 473.38 0 L 473.38 -3.97 L 475.63 -3.97 L 475.63 0 L 477.06 0 L 477.06 -9.1 L 475.63 -9.1 L 475.63 -5.4 L 473.38 -5.4 L 473.38 -9.1 Z M 488.98 -6.68 L 488.98 -6.03 L 490.41 -6.03 L 490.41 -6.68 C 490.41 -8.23 489.36 -9.23 487.86 -9.23 C 486.3 -9.23 485.3 -8.18 485.3 -6.68 C 485.3 -5.25 486.49 -4.56 487.38 -4.04 C 488.34 -3.48 488.98 -3.13 488.98 -2.42 C 488.98 -1.59 488.68 -1.3 487.86 -1.3 C 487.02 -1.3 486.73 -1.6 486.73 -2.42 L 486.73 -3.07 L 485.3 -3.07 L 485.3 -2.42 C 485.3 -0.92 486.3 0.13 487.86 0.13 C 489.36 0.13 490.41 -0.87 490.41 -2.42 C 490.41 -3.99 489.06 -4.72 488.11 -5.29 C 487.23 -5.79 486.73 -6.08 486.73 -6.68 C 486.73 -7.5 487.02 -7.8 487.86 -7.8 C 488.68 -7.8 488.98 -7.51 488.98 -6.68 Z M 498.28 -9.1 L 493.21 -9.1 L 493.21 -7.67 L 495.03 -7.67 L 495.03 0 L 496.46 0 L 496.46 -7.67 L 498.28 -7.67 Z M 503.92 -9.1 L 501.37 -9.1 L 501.37 0 L 502.8 0 L 502.8 -3.98 L 503.92 -3.98 C 504.74 -3.98 505.05 -3.68 505.05 -2.85 L 505.05 0 L 506.48 0 L 506.48 -2.85 C 506.48 -3.61 506.22 -4.25 505.76 -4.69 C 506.22 -5.15 506.48 -5.8 506.48 -6.54 C 506.48 -8.09 505.41 -9.1 503.92 -9.1 Z M 503.92 -5.41 L 502.8 -5.41 L 502.8 -7.67 L 503.92 -7.67 C 504.74 -7.67 505.05 -7.37 505.05 -6.54 C 505.05 -5.73 504.74 -5.41 503.92 -5.41 Z M 511.03 -9.1 L 509.47 0 L 510.9 0 L 511.06 -0.91 L 512.99 -0.91 L 513.15 0 L 514.58 0 L 513.02 -9.1 Z M 511.3 -2.34 L 512.03 -6.57 L 512.75 -2.34 Z M 521.79 -9.1 L 516.72 -9.1 L 516.72 -7.67 L 518.54 -7.67 L 518.54 0 L 519.97 0 L 519.97 -7.67 L 521.79 -7.67 Z M 524.89 -9.1 L 524.89 0 L 529.18 0 L 529.18 -1.43 L 526.32 -1.43 L 526.32 -3.97 L 528.92 -3.97 L 528.92 -5.4 L 526.32 -5.4 L 526.32 -7.67 L 529.18 -7.67 L 529.18 -9.1 Z M 532.43 -6.68 L 532.43 -2.42 C 532.43 -0.94 533.44 0.13 534.99 0.13 C 536.47 0.13 537.54 -0.88 537.54 -2.42 L 537.54 -4.63 L 534.94 -4.63 L 534.94 -3.2 L 536.11 -3.2 L 536.11 -2.42 C 536.11 -1.6 535.79 -1.3 534.99 -1.3 C 534.16 -1.3 533.86 -1.61 533.86 -2.42 L 533.86 -6.68 C 533.86 -7.51 534.17 -7.8 534.99 -7.8 C 535.81 -7.8 536.11 -7.49 536.11 -6.68 L 536.11 -6.03 L 537.54 -6.03 L 537.54 -6.68 C 537.54 -8.16 536.52 -9.23 534.99 -9.23 C 533.51 -9.23 532.43 -8.24 532.43 -6.68 Z M 540.92 -9.1 L 540.92 0 L 542.35 0 L 542.35 -9.1 Z M 545.69 -6.68 L 545.69 -2.42 C 545.69 -0.94 546.7 0.13 548.25 0.13 C 549.73 0.13 550.8 -0.88 550.8 -2.42 L 550.8 -3.07 L 549.37 -3.07 L 549.37 -2.42 C 549.37 -1.6 549.05 -1.3 548.25 -1.3 C 547.42 -1.3 547.12 -1.61 547.12 -2.42 L 547.12 -6.68 C 547.12 -7.51 547.43 -7.8 548.25 -7.8 C 549.07 -7.8 549.37 -7.49 549.37 -6.68 L 549.37 -6.03 L 550.8 -6.03 L 550.8 -6.68 C 550.8 -8.16 549.78 -9.23 548.25 -9.23 C 546.77 -9.23 545.69 -8.24 545.69 -6.68 Z M 559.26 -9.1 L 559.26 0 L 560.69 0 L 560.69 -9.1 Z M 564.19 -9.1 L 564.19 0 L 565.62 0 L 565.62 -5.38 L 567.87 0 L 569.3 0 L 569.3 -9.1 L 567.87 -9.1 L 567.87 -3.42 L 565.49 -9.1 Z M 576.22 -6.68 L 576.22 -6.03 L 577.65 -6.03 L 577.65 -6.68 C 577.65 -8.23 576.6 -9.23 575.11 -9.23 C 573.55 -9.23 572.55 -8.18 572.55 -6.68 C 572.55 -5.25 573.73 -4.56 574.63 -4.04 C 575.59 -3.48 576.22 -3.13 576.22 -2.42 C 576.22 -1.59 575.93 -1.3 575.11 -1.3 C 574.26 -1.3 573.98 -1.6 573.98 -2.42 L 573.98 -3.07 L 572.55 -3.07 L 572.55 -2.42 C 572.55 -0.92 573.55 0.13 575.11 0.13 C 576.6 0.13 577.65 -0.87 577.65 -2.42 C 577.65 -3.99 576.3 -4.72 575.35 -5.29 C 574.47 -5.79 573.98 -6.08 573.98 -6.68 C 573.98 -7.5 574.26 -7.8 575.11 -7.8 C 575.93 -7.8 576.22 -7.51 576.22 -6.68 Z M 581.02 -9.1 L 581.02 0 L 582.45 0 L 582.45 -9.1 Z M 585.79 -6.68 L 585.79 -2.42 C 585.79 -0.94 586.81 0.13 588.35 0.13 C 589.84 0.13 590.9 -0.88 590.9 -2.42 L 590.9 -4.63 L 588.3 -4.63 L 588.3 -3.2 L 589.47 -3.2 L 589.47 -2.42 C 589.47 -1.6 589.16 -1.3 588.35 -1.3 C 587.52 -1.3 587.22 -1.61 587.22 -2.42 L 587.22 -6.68 C 587.22 -7.51 587.53 -7.8 588.35 -7.8 C 589.17 -7.8 589.47 -7.49 589.47 -6.68 L 589.47 -6.03 L 590.9 -6.03 L 590.9 -6.68 C 590.9 -8.16 589.89 -9.23 588.35 -9.23 C 586.87 -9.23 585.79 -8.24 585.79 -6.68 Z M 594.28 -9.1 L 594.28 0 L 595.71 0 L 595.71 -3.97 L 597.96 -3.97 L 597.96 0 L 599.39 0 L 599.39 -9.1 L 597.96 -9.1 L 597.96 -5.4 L 595.71 -5.4 L 595.71 -9.1 Z M 607.48 -9.1 L 602.41 -9.1 L 602.41 -7.67 L 604.23 -7.67 L 604.23 0 L 605.66 0 L 605.66 -7.67 L 607.48 -7.67 Z M 613.85 -6.68 L 613.85 -6.03 L 615.28 -6.03 L 615.28 -6.68 C 615.28 -8.23 614.22 -9.23 612.73 -9.23 C 611.17 -9.23 610.17 -8.18 610.17 -6.68 C 610.17 -5.25 611.35 -4.56 612.25 -4.04 C 613.21 -3.48 613.85 -3.13 613.85 -2.42 C 613.85 -1.59 613.55 -1.3 612.73 -1.3 C 611.88 -1.3 611.6 -1.6 611.6 -2.42 L 611.6 -3.07 L 610.17 -3.07 L 610.17 -2.42 C 610.17 -0.92 611.17 0.13 612.73 0.13 C 614.22 0.13 615.28 -0.87 615.28 -2.42 C 615.28 -3.99 613.92 -4.72 612.98 -5.29 C 612.09 -5.79 611.6 -6.08 611.6 -6.68 C 611.6 -7.5 611.88 -7.8 612.73 -7.8 C 613.55 -7.8 613.85 -7.51 613.85 -6.68 Z M 618.25 -1.43 L 618.25 0 L 619.68 0 L 619.68 -1.43 Z" stroke-linecap="round" />
</g>
		<g transform="matrix(1 0 0 1 0.17549999999999955 13.135199999999998)" id="tagline-7638aeb3-da98-40cc-b7fa-88646465741a-logo-path-1"  >
<path style="stroke: none; stroke-width: 0; stroke-dasharray: none; stroke-linecap: butt; stroke-dashoffset: 0; stroke-linejoin: miter; stroke-miterlimit: 4; fill: rgb(24,211,217); fill-rule: nonzero; opacity: 1;"  paint-order="stroke"  transform=" translate(0, 0)" d="" stroke-linecap="round" />
</g>
</g>
</g>
</svg>